<?xml version="1.0" encoding="UTF-8"?>
<svg xmlns="http://www.w3.org/2000/svg" xmlns:xlink="http://www.w3.org/1999/xlink" width="4000px" height="8923px" viewBox="0 0 4000 8923" version="1.1">
<g id="surface1">
<path style="fill-rule:nonzero;fill:rgb(59.607843%,59.607843%,60.784314%);fill-opacity:1;stroke-width:1;stroke-linecap:butt;stroke-linejoin:miter;stroke:rgb(9.803922%,9.803922%,10.196078%);stroke-opacity:1;stroke-miterlimit:10;" d="M 12.729996 11.997999 C 12.729996 11.997999 8.352995 0.499996 6.588994 0.499996 C 4.825006 0.499996 0.500005 11.997999 0.500005 11.997999 L 0.500005 26.248001 L 0.503001 26.248001 C 0.501998 26.267006 0.500005 26.288994 0.500005 26.307999 C 0.500005 27.558003 1.513002 28.571999 2.762995 28.571999 C 4.013001 28.571999 9.219006 28.571999 10.468999 28.571999 C 11.719005 28.571999 12.733005 27.558003 12.733005 26.307999 C 12.733005 26.288004 12.730999 26.267006 12.729006 26.246998 L 12.733005 26.246998 Z M 12.729996 11.997999 " transform="matrix(307.692308,0,0,307.689655,0,0)"/>
</g>
</svg>
